<?xml version="1.0" standalone="no"?>
<!DOCTYPE svg PUBLIC "-//W3C//DTD SVG 20010904//EN"
 "http://www.w3.org/TR/2001/REC-SVG-20010904/DTD/svg10.dtd">
<svg version="1.0" xmlns="http://www.w3.org/2000/svg"
 width="50.000000pt" height="50.000000pt" viewBox="0 0 50.000000 50.000000"
 preserveAspectRatio="xMidYMid meet">

<g transform="translate(0.000000,50.000000) scale(0.100000,-0.100000)"
fill="#000000" stroke="none">
<path d="M209 453 c-18 -20 -26 -31 -16 -23 17 12 18 11 11 -15 -6 -26 -5 -28
17 -20 13 5 45 9 71 9 l47 1 -41 43 c-23 23 -45 42 -48 42 -3 0 -22 -17 -41
-37z m82 -10 l34 -38 -37 34 c-38 34 -38 34 -60 15 l-23 -19 19 23 c11 12 22
22 26 22 3 0 22 -17 41 -37z"/>
<path d="M140 386 c-28 -25 -140 -144 -127 -134 8 6 121 -107 123 -123 1 -5 2
-12 3 -15 2 -10 41 43 41 55 0 6 -8 11 -18 11 -11 0 -26 8 -36 19 -16 17 -15
20 14 51 35 38 38 45 10 30 -11 -6 -25 -8 -30 -5 -10 6 -14 -6 -11 -35 1 -11
-2 -11 -13 3 -21 27 1 86 41 112 17 11 30 28 30 38 -1 9 -1 17 -2 17 0 0 -11
-11 -25 -24z m-60 -79 c0 -2 -12 -14 -27 -28 l-28 -24 24 28 c23 25 31 32 31
24z"/>
<path d="M370 374 c0 -6 5 -15 11 -21 17 -17 17 -123 0 -123 -10 0 -12 -9 -6
-36 6 -34 5 -35 -17 -28 -21 6 -22 5 -8 -11 13 -16 18 -12 72 43 31 32 61 57
65 53 4 -3 -19 24 -52 59 -33 35 -61 66 -62 69 -2 2 -3 0 -3 -5z m70 -79 c19
-19 32 -35 29 -35 -3 0 -20 16 -39 35 -19 19 -32 35 -29 35 3 0 20 -16 39 -35z"/>
<path d="M234 155 c25 -19 37 -19 30 0 -4 8 -16 15 -28 15 -21 -1 -21 -1 -2
-15z"/>
<path d="M180 112 c-39 -14 -42 -17 -20 -20 14 -2 40 -18 58 -35 l32 -31 45
44 c25 25 42 46 37 48 -5 1 -33 -6 -62 -17 l-52 -20 6 25 c4 13 5 24 4 23 -2
0 -23 -8 -48 -17z"/>
</g>
</svg>
