<?xml version="1.0" standalone="no"?>
<!DOCTYPE svg PUBLIC "-//W3C//DTD SVG 20010904//EN"
 "http://www.w3.org/TR/2001/REC-SVG-20010904/DTD/svg10.dtd">
<svg version="1.0" xmlns="http://www.w3.org/2000/svg"
 width="512.000000pt" height="512.000000pt" viewBox="0 0 512.000000 512.000000"
 preserveAspectRatio="xMidYMid meet">

<g transform="translate(0.000000,512.000000) scale(0.100000,-0.100000)"
fill="#000000" stroke="none">
<path d="M2689 5101 c-71 -23 -142 -71 -181 -124 -16 -23 -168 -317 -336 -653
l-306 -612 -85 -37 c-186 -82 -405 -208 -508 -292 -103 -84 -111 -222 -20
-317 53 -55 91 -66 231 -66 83 0 107 -3 103 -12 -3 -7 -22 -50 -41 -96 -79
-184 -115 -391 -97 -554 6 -51 15 -109 21 -128 5 -19 10 -41 10 -47 0 -10 -69
-13 -318 -13 -178 0 -332 -4 -351 -10 -19 -5 -37 -8 -39 -5 -2 2 -24 272 -49
600 l-45 596 37 41 c152 167 115 445 -76 568 -74 48 -140 64 -238 58 -62 -4
-88 -11 -139 -38 -244 -130 -282 -451 -76 -628 l44 -37 27 -359 c25 -332 29
-361 48 -384 29 -33 81 -34 107 -3 23 29 22 38 -2 351 -11 140 -20 273 -20
296 l0 41 67 6 c39 4 70 3 73 -3 3 -5 26 -277 50 -603 l44 -594 -36 -54 c-65
-99 -84 -211 -52 -320 18 -63 64 -139 104 -172 l27 -23 45 -605 c25 -332 44
-607 41 -611 -4 -7 -142 -12 -143 -5 -1 1 -36 469 -79 1040 -74 985 -79 1040
-99 1059 -26 26 -75 28 -102 3 -15 -14 -20 -31 -20 -73 0 -30 34 -508 76
-1061 73 -977 76 -1007 99 -1047 34 -58 73 -74 182 -74 134 1 189 27 224 106
18 40 18 49 -21 570 -21 291 -41 550 -44 577 l-5 47 74 0 74 0 6 -44 c15 -99
93 -184 187 -205 51 -12 82 -5 328 68 74 22 136 38 138 36 3 -2 -21 -217 -52
-477 -31 -260 -56 -493 -55 -518 1 -91 56 -179 140 -225 l54 -30 1085 0 1085
0 53 29 c76 42 127 116 138 199 4 27 -16 231 -51 530 -32 268 -56 489 -54 492
3 2 88 -21 189 -51 160 -48 194 -55 251 -52 52 3 75 9 108 31 53 35 99 107
107 168 l6 47 87 4 c67 3 99 10 143 32 76 36 144 106 182 186 27 58 31 75 31
155 0 80 -4 97 -31 155 -39 83 -101 145 -184 184 l-65 31 -337 3 c-187 2 -338
7 -338 12 0 5 7 42 16 82 21 96 21 271 0 378 -17 93 -58 220 -100 314 -14 32
-26 60 -26 62 0 2 48 4 108 4 137 0 177 11 228 64 70 73 83 186 30 266 -47 71
-329 247 -546 340 l-95 40 -307 613 c-169 336 -321 631 -338 654 -60 82 -188
144 -294 142 -28 0 -76 -8 -107 -18z m174 -142 c84 -23 105 -54 313 -471 107
-213 194 -390 194 -393 0 -3 -54 -5 -120 -5 -115 0 -122 -1 -145 -25 -14 -13
-25 -36 -25 -50 0 -14 11 -37 25 -50 24 -24 28 -25 184 -25 l161 0 50 -100
c27 -55 50 -102 50 -105 0 -3 -340 -5 -755 -5 l-755 0 52 105 53 105 372 0
c360 0 374 1 393 20 30 30 27 83 -6 109 -26 20 -38 21 -353 21 l-327 0 194
388 c205 409 231 450 308 477 47 17 87 18 137 4z m-2345 -1125 c20 -8 52 -29
71 -47 129 -122 71 -341 -103 -388 -137 -37 -286 84 -286 231 0 76 68 172 145
206 41 18 128 17 173 -2z m3224 -290 c176 -75 400 -202 481 -273 44 -39 50
-81 15 -105 -20 -14 -173 -16 -1438 -16 -1265 0 -1418 2 -1438 16 -29 20 -29
66 1 95 67 64 271 183 467 271 l105 47 862 1 861 0 84 -36z m-1884 -616 c-24
-91 -20 -238 8 -311 40 -103 128 -189 234 -228 l59 -21 -20 -36 c-25 -48 -24
-81 4 -123 28 -41 77 -70 180 -104 159 -52 301 -42 420 31 l57 35 58 -35 c136
-84 294 -86 486 -6 119 50 160 118 118 199 l-21 39 46 16 c138 47 229 149 263
295 15 64 8 203 -13 274 l-15 47 59 0 58 0 42 -87 c85 -179 120 -322 120 -486
1 -224 -77 -395 -253 -563 -119 -113 -223 -178 -430 -268 -233 -101 -353 -169
-451 -254 -27 -23 -56 -42 -66 -42 -10 0 -50 26 -89 58 -102 83 -214 146 -396
224 -243 104 -342 164 -470 287 -173 167 -249 339 -249 561 0 156 36 301 118
478 l44 92 59 0 58 0 -18 -72z m1722 15 c28 -74 36 -175 20 -241 -24 -104
-104 -171 -223 -190 l-55 -9 -36 48 c-103 139 -290 209 -428 162 -58 -20 -58
-20 -115 0 -139 47 -313 -17 -428 -158 l-40 -50 -53 7 c-159 23 -241 130 -229
297 3 42 15 102 27 134 l21 57 759 0 759 0 21 -57z m-842 -394 c67 -35 50 -37
156 19 62 32 170 -3 242 -80 37 -39 164 -204 164 -213 0 -2 -30 -14 -67 -27
-49 -16 -90 -23 -148 -23 -93 0 -133 17 -215 90 -28 25 -58 45 -66 45 -23 0
-55 -20 -80 -49 -12 -15 -46 -40 -76 -56 -46 -26 -63 -30 -133 -30 -73 0 -168
21 -203 43 -10 7 0 27 40 82 158 219 252 268 386 199z m-1768 -774 l0 -225
-62 0 c-39 0 -78 7 -103 19 -46 20 -101 79 -121 127 -30 71 -12 164 44 226 49
55 102 78 180 78 l62 0 0 -225z m630 153 c56 -88 171 -205 276 -280 99 -71
207 -128 395 -211 169 -74 259 -126 346 -196 85 -69 118 -84 183 -84 65 0 101
17 182 84 82 68 171 119 340 193 197 87 295 138 392 207 106 76 231 202 287
288 l44 70 218 0 217 1 0 -314 c0 -184 -4 -326 -10 -341 -5 -14 -24 -32 -41
-39 -37 -16 -24 -19 -337 74 -172 51 -218 62 -240 54 -57 -20 -57 -12 15 -622
67 -559 67 -563 49 -597 -37 -69 28 -65 -1121 -65 -1138 0 -1077 -3 -1110 60
-8 16 -15 44 -15 62 0 18 29 274 64 568 58 482 63 537 50 562 -25 48 -48 46
-308 -30 -301 -88 -292 -87 -331 -47 l-25 24 0 326 0 325 218 -1 217 0 45 -71z
m3195 53 c51 -23 111 -89 124 -138 23 -82 7 -155 -47 -215 -49 -55 -102 -78
-179 -78 l-63 0 0 225 0 225 63 0 c38 0 77 -7 102 -19z"/>
<path d="M2220 2920 c-17 -17 -20 -33 -20 -110 0 -79 3 -92 22 -110 40 -37 98
-22 117 31 24 69 8 179 -29 199 -30 16 -68 12 -90 -10z"/>
<path d="M3279 2921 c-22 -18 -24 -27 -24 -111 0 -84 2 -93 24 -111 32 -26 73
-24 99 4 19 20 22 35 22 110 0 74 -3 90 -20 107 -25 25 -71 26 -101 1z"/>
</g>
</svg>
